<?xml version="1.0" encoding="utf-8"?>
<svg xmlns="http://www.w3.org/2000/svg" xmlns:xlink="http://www.w3.org/1999/xlink" version="1.1" width="700" height="1000" viewBox="0 0 700 1000">
	<title>Cover of “Perpetual Peace”, by Immanuel Kant</title>
	<defs>
		<clipPath id="clip-globe">
			<circle id="globe" r="300" fill="#dff"/>
		</clipPath>
		
		<!-- Countries outline based on http://commons.wikimedia.org/wiki/File:Emblem-earth.svg -->
		<path id="countries" d="m -0.451624,-292.79414 -34.2611,3.87674 -42.246521,11.63022 -8.018555,7.75348 26.275679,18.09145 0,10.33797 -10.271703,10.33797 13.717694,27.17031 9.111995,-5.16898 11.431411,-18.09145 c 17.644968,-5.45521 33.460581,-11.65983 50.231942,-19.41684 l 13.717694,-34.89065 -29.688536,-11.63022 z m -81.080185,2.58449 -14.744861,2.08748 -6.95825,6.95825 -11.49768,1.65672 -10.20544,4.80451 -4.97018,2.38569 -3.01524,4.07554 14.81113,2.5845 5.73228,-5.16899 11.43141,-2.58449 c 7.824751,-3.80545 15.686986,-6.36055 23.989395,-9.04573 l -4.572564,-7.75348 z m -67.395631,31.01392 -2.28628,5.16898 1.15971,12.92247 -9.14513,7.75348 -5.73227,14.21471 11.43141,0 5.73227,-12.92246 c 4.92583,-3.48335 9.82731,-6.98504 14.84427,-10.33798 l 11.39828,3.87674 c 7.61106,5.17082 15.24547,10.344 22.86282,15.50696 l 11.431412,-10.33797 -12.591122,-5.16899 -5.69914,-11.63022 -21.70311,-2.58449 -1.15971,-6.46123 -10.2717,2.58449 -4.57257,9.04573 -5.69914,-11.63022 z m -27.40225,10.33797 -5.73227,14.21471 c 0,0 -11.02992,0.88457 -13.48575,1.49106 -40.47111,33.63108 -95.22911,95.29311 -107.95229,210.072892 0.58292,2.730741 10.66932,18.555335 10.66932,18.555335 l 23.98939,14.214712 23.95627,6.461232 10.30483,12.9556 15.97085,11.630219 9.14513,-1.292247 6.85884,3.081511 0,2.087475 -9.14513,24.552684 -6.85884,10.337972 2.28628,5.168986 -5.69914,19.383699 20.54341,37.50828 20.57654,18.09145 9.14513,12.92247 -1.15971,27.17031 6.85884,15.47382 -6.85884,29.75481 c 0,0 -0.54383,-0.19255 0.33134,2.7833 0.88304,2.97742 36.59637,22.79416 38.8668,21.10669 2.26258,-1.71889 4.20809,-3.21405 4.20809,-3.21405 l -2.28629,-6.46123 9.14513,-9.04572 3.41286,-9.04573 14.84427,-5.20212 11.431409,-28.42942 -3.412859,-7.72035 7.952289,-11.63022 17.163685,-3.90987 9.145129,-20.67595 -2.286282,-25.84493 13.684559,-19.3837 2.286283,-19.416827 C -67.181537,89.590739 -85.783356,80.032982 -104.39463,70.45967 l -9.14513,-18.124586 -17.13055,-3.87674 -9.112,-24.519549 -22.86282,2.551358 -19.3837,-14.181577 -20.57654,18.091452 0,2.849569 c -6.22209,-1.795881 -13.87665,-2.06084 -19.41683,-5.467197 l -4.57256,-12.922465 0,-14.214712 -13.7177,1.292247 c 1.14387,-9.053254 2.29428,-18.085503 3.44599,-27.137177 l -8.01855,0 -7.98542,10.337972 -7.98542,3.876739 -11.43142,-6.461232 -1.12657,-14.214712 2.28628,-15.506958 17.13055,-12.922465 13.68456,0 2.28628,-7.786614 17.13055,3.876739 12.55799,15.540093 2.28628,-25.878065 21.70312,-18.09145 8.01855,-19.3837 15.97084,-6.46123 9.14513,-12.92247 20.54341,-3.90987 10.30484,-15.47382 -30.84825,0 19.41683,-9.07886 13.68456,0 19.44997,-6.46124 2.28628,-7.75348 -6.85884,-6.46123 -8.01856,-2.58449 2.28628,-7.75348 -5.69914,-11.63022 -13.71769,5.16899 2.28628,-10.33798 -15.97084,-9.07886 -12.55798,21.96819 1.12657,7.78662 -12.55799,5.16898 -8.01855,16.79921 -3.41286,-15.50696 -21.70311,-9.04572 -3.41286,-11.63022 28.52883,-16.83234 12.59112,-11.63022 1.12657,-14.21471 -6.85884,-3.87674 -9.112,-1.29225 z m 319.94699,0 -21.70312,5.16899 -13.71769,9.04572 0,7.78662 -21.66998,14.21471 4.57256,20.67594 12.55799,-9.04572 7.98542,9.04572 9.14513,5.16899 5.69914,-15.50696 -3.41286,-9.07886 3.41286,-6.46123 12.55798,-11.63022 5.69914,0 -5.69914,12.92246 0,11.66336 c 5.24792,-1.42822 10.6335,-1.91674 16.00398,-2.5845 l -14.84427,10.33798 -1.15971,6.46123 -17.13055,14.21471 -17.09741,-3.87674 0,-10.33797 -8.01856,5.16898 3.44599,9.04573 -12.59112,0 -6.85885,11.63022 -8.548703,9.70842 -15.407555,3.21404 9.111995,9.07886 2.319417,9.0126 -11.431412,0 -14.844268,7.78661 0,23.26044 6.825713,0 6.29556,7.09079 14.280981,-7.09079 5.699138,-14.21471 10.271704,-6.49437 2.28628,-5.13585 17.16369,-3.87674 9.11199,10.33797 10.2717,5.16899 -5.69913,11.63021 9.14512,-2.58449 4.57257,-11.63022 -11.43141,-12.92246 4.57256,0 11.43141,9.01259 2.25315,12.9556 10.2717,11.63022 2.28629,-16.79921 5.73227,-2.58449 c 5.64701,5.86214 10.08814,12.78624 14.84427,19.3837 l 17.13055,1.29224 10.30484,6.46124 -4.57257,6.46123 -10.30484,9.04572 -14.84426,0 -19.41684,-6.46123 -10.2717,1.29225 -7.42213,8.383033 -21.13983,-21.305503 -14.84427,-3.87674 -21.703114,2.5845 -19.416832,5.16898 c -10.89494,12.3512 -21.662802,24.647891 -31.974818,37.475151 l -12.557985,29.754805 5.699138,6.461232 -10.271703,15.506958 11.431411,27.137177 c 9.711799,10.985829 19.39445,21.975179 29.092114,32.968854 l 14.314116,-12.259775 6.262425,7.123923 15.407558,-9.708416 5.16898,5.798542 15.40756,0 8.84692,10.039762 -5.43407,17.760106 10.86813,12.292909 -0.59642,21.305502 8.01855,15.54009 -5.73227,12.92247 c -0.56879,9.51203 -1.12657,18.9158 -1.12657,28.42942 4.6807,12.88854 9.29781,25.78615 13.71769,38.7674 l 3.41286,20.70907 0,10.33798 7.98542,0 12.59112,-7.75348 14.81113,0 22.29954,-25.21538 -2.84957,-8.38303 14.84426,-12.9556 -10.86812,-12.25978 13.12127,-11.00066 12.59112,-7.75348 5.69914,-6.46123 -3.41286,-14.21471 0,-36.182905 10.27171,-22.001326 12.55798,-14.214712 13.7177,-33.631544 0,-9.045725 c -6.80922,0.857702 -13.41785,1.641786 -20.07953,2.120609 l 13.78397,-13.750828 18.85354,-12.922465 10.2717,-11.630219 0,-12.922465 c -2.28614,-4.311369 -4.55697,-8.644231 -6.85884,-12.9556 l -9.14513,10.371107 -6.82571,-7.753479 -10.27171,-7.786614 0,-16.799205 11.9947,13.585156 13.12127,-1.954937 c 5.98327,5.431634 11.88263,10.648101 17.13055,16.832339 L 296.5,-48.857759 C 285.28613,-127.88424 242.09403,-187.5148 192.92147,-232.58871 l -2.45195,4.4069 -11.43142,12.92246 -14.84426,-15.50696 14.84426,0 6.85885,-7.75348 -27.40225,-5.16898 -14.8774,-5.16899 z m -113.22068,16.79921 -9.145129,5.20212 -4.572565,-1.32538 -1.159708,7.75347 8.018555,5.16899 13.68456,-9.04573 -6.825713,-7.75347 z m -150.76209,2.58449 -9.14513,6.46123 11.39827,7.75348 9.14513,0 0,-9.04573 -11.39827,-5.16898 z m 180.450626,29.7548 0,7.75348 4.572564,5.16899 0,11.63022 -2.286282,15.50696 12.557985,-2.5845 9.145127,-9.04572 -8.01855,-7.75348 c -2.685246,-7.15053 -5.751128,-13.81766 -9.111997,-20.67595 l -6.858847,0 z m -4.572565,15.50696 -8.018555,2.58449 2.319417,14.21472 10.271703,-5.16899 -4.572565,-11.63022 z m -157.620941,23.26044 3.44599,18.09145 6.858848,-10.33797 -10.304838,-7.75348 z m 298.277,100.861497 13.12128,14.844267 15.44069,32.968854 9.11199,10.337972 -4.57256,11.630219 8.74751,9.940357 c -4.00246,0.271036 -8.04495,0.430749 -12.16037,0.430749 -7.27325,-15.283053 -12.75165,-30.565492 -18.29026,-46.554009 l -9.67528,-11.000663 -5.16899,-18.754141 3.44599,-3.843605 z" stroke="#484" stroke-width="2" stroke-linejoin="round" fill="#8c8"/>
		
		<g id="meridian-lines" stroke="black" stroke-width="10" stroke-linecap="round" fill="none">
			<path d="m 0,-300 a 375,375 0 0 0 0,600"/>
			<line y1="-300" y2="300"/>
			<path d="m 0,-300 a 375,375 0 0 1 0,600"/>
		</g>
		
		<g id="latitude-lines" stroke="black" stroke-width="10" stroke-linecap="round" fill="none">
			<path d="m -212.132,-212.132 a 300,300 0 0 0 424.264,0"/>
			<line x1="-300" x2="300"/>
			<path d="m -212.132,212.132 a 300,300 0 0 1 424.264,0"/>
		</g>
		
		<g id="earth" clip-path="url(#clip-globe)">
			<use xlink:href="#globe"/>
			<use xlink:href="#countries"/>
			<use xlink:href="#meridian-lines"/>
			<use xlink:href="#latitude-lines"/>
		</g>
		
		<path id="peace-sign" d="m -270,0 a 270,270 0 0 0 540,0 270,270 0 0 0 -540,0 z m 270,270 0,-540 z m 0,-270 -190.919,190.919 z m 0,0 190.919,190.919 z" stroke="black" stroke-width="60" fill="none"/>
	</defs>
	
	<rect width="700" height="1000" fill="#ffdddd"/>
	
	<use xlink:href="#earth" x="350" y="550"/>
	<use xlink:href="#peace-sign" x="350" y="550"/>
	
	<g font-family="Palatino, Georgia, 'Bookman Old Style', Bookman, serif" text-anchor="middle">
		<text x="350" y="184">
			<tspan x="350" dy="-64" font-size="64px">Perpetual Peace</tspan><tspan x="-9999" dy="0">:</tspan>
			<tspan x="350" dy="64" font-size="32px">A Philosophical Sketch</tspan>
		</text>
		<text x="350" y="930" font-size="32px">Immanuel Kant</text>
	</g>
</svg>
